<svg version="1.1"
     width="300" height="200"
     xmlns="http://www.w3.org/2000/svg">
	<defs>
    	<polyline id="resistor" points="0,10 5,0 15,30 25,0 35,30 45,0 55,30 65,0 75,30 80,10" style="fill:none;stroke:black;stroke-width:3" />
  
		<g id="dc_source" style="fill:none;stroke:black;stroke-width:3">
		  <polyline points="0,10 20,10 20,0 20,10 40,10" />
		  <text x="25" y="7" style="stroke-width:1">+</text>
		  
		  <polyline points="5,20 35,20" style="stroke-width:5" />
		  <text x="25" y="29" style="stroke-width:1">-</text>
		  
		  <line x1="20" y1="20" x2="20" y2="30" />
		  
		</g>
		
		<g id="ac_source" style="fill:none;stroke:black;stroke-width:3">
			<circle cx="20" cy="20" r="20" />
			<path d="m 5 20 c 10 -25 20 25 30 1" />
		</g>
		
		<g id="batterie_source" style="fill:none;stroke:black;stroke-width:3">
			<polyline points="0,10 20,10 20,0 20,10 40,10" />
			<text x="25" y="7" style="stroke-width:1">+</text>
			
			<polyline points="5,15 35,15" />
			<polyline points="0,20 40,20" />
			<polyline points="5,25 20,25 20,35 20,25 35,25" />
			<text x="25" y="34" style="stroke-width:1">-</text>
		</g>

		<g id="condensateur" style="fill:none;stroke:black;stroke-width:3">
		  <polyline points="0,10 20,10 20,0 20,10 40,10" />
		  <polyline points="0,20 20,20 20,30 20,20 40,20" />
		</g>

		<g id="bobine" style="fill:none;stroke:black;stroke-width:3">
			<path d="m 0 10 a 2 2 0 0 0 20 0 a 2 2 0 0 0 20 0 a 2 2 0 0 0 20 0 a 2 2 0 0 0 20 0" />
			<ellipse cx="20" cy="2" rx="5" ry="10" />
			<ellipse cx="40" cy="2" rx="5" ry="10" />
			<ellipse cx="60" cy="2" rx="5" ry="10" />
		</g>
	</defs>
	
	
	<use x="5" y="5" href="#resistor" />
	<use x="5" y="45" href="#dc_source" />
	<use x="5" y="85" href="#ac_source" />
	<use x="5" y="130" href="#batterie_source" />
	<use x="5" y="175" href="#condensateur" />
	<use x="5" y="220" href="#bobine" />

    Sorry, your browser does not support inline SVG.
</svg>
