<svg version="1.1"
     width="450" height="400"
     xmlns="http://www.w3.org/2000/svg" xmlns:xlink="http://www.w3.org/1999/xlink" style="fill:none;stroke:black;stroke-width:3">
    <defs>
        <g id="Bobine" style="fill:none;stroke:black;stroke-width:3">
            <path d="m 0 10 a 2 2 0 0 0 20 0 a 2 2 0 0 0 20 0 a 2 2 0 0 0 20 0 a 2 2 0 0 0 20 0" />
            <ellipse cx="20" cy="2" rx="5" ry="10" />
            <ellipse cx="40" cy="2" rx="5" ry="10" />
            <ellipse cx="60" cy="2" rx="5" ry="10" />
        </g>

        <g id="Condensateur" style="fill:none;stroke:black;stroke-width:3">
            <polyline points="0,10 20,10 20,0 20,10 40,10" />
            <polyline points="0,20 20,20 20,30 20,20 40,20" />
        </g>

        <g id="Générateur" style="fill:none;stroke:black;stroke-width:3">
            <circle cx="20" cy="20" r="20" />
            <path d="m 5 20 c 10 -25 20 25 30 1" />
        </g>

        <g id="Pile" style="fill:none;stroke:black;stroke-width:3">
            <polyline points="0,10 20,10 20,0 20,10 40,10" />
            <text x="25" y="7" style="stroke-width:1">+</text>

            <polyline points="5,20 35,20" style="stroke-width:5" />
            <text x="25" y="29" style="stroke-width:1">-</text>

            <polyline points="20,20 20,30" />
        </g>

        <g id="Résistor">
            <polyline points="0,10 5,0 15,30 25,0 35,30 45,0 55,30 65,0 75,30 80,10" style="fill:none;stroke:black;stroke-width:3" />
        </g>
    </defs>
    <use xlink:href="#Pile" voltage="5" x="5" y="150" />
    <line x1="25" y1="150" x2="25" y2="70" style="fill:none;stroke:black;stroke-width:3"/>
    <line x1="25" y1="70" x2="210" y2="70" style="fill:none;stroke:black;stroke-width:3"/>

<!--    chemin avent resistor haut-->
    <line x1="210" y1="70" x2="210" y2="20" style="fill:none;stroke:black;stroke-width:3"/>
    <line x1="210" y1="20" x2="250" y2="20" style="fill:none;stroke:black;stroke-width:3"/>
    <use xlink:href="#Résistor" resistance="25" x="250" y="10"/>

<!--    chemin avent resistor bas-->
    <line x1="210" y1="70" x2="210" y2="120" style="fill:none;stroke:black;stroke-width:3"/>
    <line x1="210" y1="120" x2="250" y2="120" style="fill:none;stroke:black;stroke-width:3"/>
    <use xlink:href="#Résistor" resistance="25" x="250" y="110"/>

    <!--    chemin vers le bas-->
    <line x1="210" y1="120" x2="210" y2="170" style="fill:none;stroke:black;stroke-width:3"/>
    <line x1="210" y1="170" x2="250" y2="170" style="fill:none;stroke:black;stroke-width:3"/>
    <use xlink:href="#Résistor" resistance="25" x="250" y="160"/>
    <line x1="330" y1="170" x2="370" y2="120" style="fill:none;stroke:black;stroke-width:3"/>


    <!--    chemin apres resistor bas-->
    <line x1="330" y1="120" x2="370" y2="120" style="fill:none;stroke:black;stroke-width:3"/>
    <line x1="370" y1="70" x2="370" y2="120" style="fill:none;stroke:black;stroke-width:3"/>

<!--    chemin apres resistor haut-->
    <line x1="330" y1="20" x2="370" y2="20" style="fill:none;stroke:black;stroke-width:3"/>
    <line x1="370" y1="70" x2="370" y2="20" style="fill:none;stroke:black;stroke-width:3"/>

    <line x1="370" y1="70" x2="400" y2="70" style="fill:none;stroke:black;stroke-width:3"/>
    <line x1="400" y1="300" x2="400" y2="70" style="fill:none;stroke:black;stroke-width:3"/>
    <line x1="400" y1="300" x2="210" y2="300" style="fill:none;stroke:black;stroke-width:3"/>
    <line x1="210" y1="300" x2="25" y2="300" style="fill:none;stroke:black;stroke-width:3"/>
    <line x1="25" y1="300" x2="25" y2="180" style="fill:none;stroke:black;stroke-width:3"/>
</svg>